<?xml version="1.0" encoding="UTF-8" standalone="no"?>
<svg width="16px" height="15px" viewBox="0 0 16 15" version="1.1" xmlns="http://www.w3.org/2000/svg" xmlns:xlink="http://www.w3.org/1999/xlink" xmlns:sketch="http://www.bohemiancoding.com/sketch/ns">
    <!-- Generator: Sketch 3.4.1 (15681) - http://www.bohemiancoding.com/sketch -->
    <title>Calender Icon</title>
    <desc>Created with Sketch.</desc>
    <defs></defs>
    <g id="Toolkit" stroke="none" stroke-width="1" fill="none" fill-rule="evenodd" sketch:type="MSPage">
        <g id="Dropdowns" sketch:type="MSArtboardGroup" transform="translate(-877.000000, -409.000000)" fill="#056DAE">
            <g id="Dropdown-Grey" sketch:type="MSLayerGroup" transform="translate(570.000000, 101.000000)">
                <g id="Calendar" transform="translate(0.000000, 260.000000)" sketch:type="MSShapeGroup">
                    <g id="Right-Icon" transform="translate(290.000000, 30.000000)">
                        <path d="M17,32.9225121 L33,32.9225121 L33,18 L17,18 L17,32.9225121 Z M22.3344,22.2635749 L24.4677333,22.2635749 L24.4677333,24.3953623 L22.3344,24.3953623 L22.3344,22.2635749 Z M25.5344,22.2635749 L27.6677333,22.2635749 L27.6677333,24.3953623 L25.5344,24.3953623 L25.5344,22.2635749 Z M28.7344,22.2635749 L30.8677333,22.2635749 L30.8677333,24.3953623 L28.7344,24.3953623 L28.7344,22.2635749 Z M19.1344,25.461256 L21.2677333,25.461256 L21.2677333,27.5930435 L19.1344,27.5930435 L19.1344,25.461256 Z M22.3344,25.461256 L24.4677333,25.461256 L24.4677333,27.5930435 L22.3344,27.5930435 L22.3344,25.461256 Z M25.5344,25.461256 L27.6677333,25.461256 L27.6677333,27.5930435 L25.5344,27.5930435 L25.5344,25.461256 Z M28.7344,25.461256 L30.8677333,25.461256 L30.8677333,27.5930435 L28.7344,27.5930435 L28.7344,25.461256 Z M19.1344,28.6589372 L21.2677333,28.6589372 L21.2677333,30.7907246 L19.1344,30.7907246 L19.1344,28.6589372 Z M22.3344,28.6589372 L24.4677333,28.6589372 L24.4677333,30.7907246 L22.3344,30.7907246 L22.3344,28.6589372 Z M25.5344,28.6589372 L27.6677333,28.6589372 L27.6677333,30.7907246 L25.5344,30.7907246 L25.5344,28.6589372 Z M18.0666667,21.1976812 L31.9333333,21.1976812 L31.9333333,31.8566184 L18.0666667,31.8566184 L18.0666667,21.1976812 Z" id="Calender-Icon"></path>
                    </g>
                </g>
            </g>
        </g>
    </g>
</svg>